HIERARCHY
ROOT Hips
{
	OFFSET 0.00000 0.00000 0.00000
	CHANNELS 6 Xposition Yposition Zposition Zrotation Yrotation Xrotation 
	JOINT LHipJoint
	{
		OFFSET 0 0 0
		CHANNELS 3 Zrotation Yrotation Xrotation
		JOINT LeftHip
		{
			OFFSET 1.23340 -1.80723 0.69510
			CHANNELS 3 Zrotation Yrotation Xrotation
			JOINT LeftKnee
			{
				OFFSET 2.50056 -6.87023 0.00000
				CHANNELS 3 Zrotation Yrotation Xrotation
				JOINT LeftAnkle
				{
					OFFSET 2.85931 -7.85591 0.00000
					CHANNELS 3 Zrotation Yrotation Xrotation
					JOINT LeftToe
					{
						OFFSET 0.21001 -0.57700 2.07823
						CHANNELS 3 Zrotation Yrotation Xrotation
						End Site
						{
							OFFSET 0.00000 -0.00000 1.08338
						}
					}
				}
			}
		}
	}
	JOINT RHipJoint
	{
		OFFSET 0 0 0
		CHANNELS 3 Zrotation Yrotation Xrotation
		JOINT RightHip
		{
			OFFSET -1.40842 -1.80723 0.69510
			CHANNELS 3 Zrotation Yrotation Xrotation
			JOINT RightKnee
			{
				OFFSET -2.54876 -7.00266 0.00000
				CHANNELS 3 Zrotation Yrotation Xrotation
				JOINT RightAnkle
				{
					OFFSET -2.74835 -7.55104 0.00000
					CHANNELS 3 Zrotation Yrotation Xrotation
					JOINT RightToe
					{
						OFFSET -0.22633 -0.62184 2.00890
						CHANNELS 3 Zrotation Yrotation Xrotation
						End Site
						{
							OFFSET -0.00000 -0.00000 1.05493
						}
					}
				}
			}
		}
	}
	JOINT lowerback
	{
		OFFSET 0 0 0
		CHANNELS 3 Zrotation Yrotation Xrotation
		JOINT Chest
		{
			OFFSET -0.02340 2.02740 -0.12728
			CHANNELS 3 Zrotation Yrotation Xrotation
			JOINT Chest2
			{
				OFFSET -0.00862 2.03614 -0.01188
				CHANNELS 3 Zrotation Yrotation Xrotation
				JOINT lowerneck
				{
					OFFSET 0 0 0
					CHANNELS 3 Zrotation Yrotation Xrotation
					JOINT Neck
					{
						OFFSET 0.03380 1.76650 0.27670
						CHANNELS 3 Zrotation Yrotation Xrotation
						JOINT Head
						{
							OFFSET -0.01114 1.80516 -0.21451
							CHANNELS 3 Zrotation Yrotation Xrotation
							End Site
							{
								OFFSET -0.00766 1.81942 -0.10287
							}
						}
					}
				}
				JOINT LeftCollar
				{
					OFFSET 0 0 0
					CHANNELS 3 Zrotation Yrotation Xrotation
					JOINT LeftShoulder
					{
						OFFSET 3.22358 1.39475 0.18630
CHANNELS 3 Zrotation Xrotation Yrotation
						JOINT LeftElbow
						{
OFFSET 0 -5.450770 0.000000
CHANNELS 3 Zrotation Xrotation Yrotation
							JOINT LeftWrist
							{
OFFSET 0 -3.054880 0.000000
CHANNELS 3 Zrotation Xrotation Yrotation
								JOINT lhand
								{
									OFFSET 0 0 0
CHANNELS 3 Zrotation Xrotation Yrotation
									JOINT LFingers
									{
OFFSET 0 -0.638820 0.000000
CHANNELS 3 Zrotation Xrotation Yrotation
										End Site
										{
OFFSET 0 -0.515030 0.000000
										}
									}
								}
								JOINT LThumb
								{
OFFSET 0 0.000000 0.000000
CHANNELS 3 Zrotation Xrotation Yrotation
									End Site
									{
OFFSET 0 -0.522900 0.522900
									}
								}
							}
						}
					}
				}
				JOINT RightCollar
				{
					OFFSET 0 0 0
					CHANNELS 3 Zrotation Yrotation Xrotation
					JOINT RightShoulder
					{
						OFFSET -3.57143 1.14055 0.30691
CHANNELS 3 Zrotation Xrotation Yrotation
						JOINT RightElbow
						{
OFFSET 0 -4.887020 -0.000000
CHANNELS 3 Zrotation Xrotation Yrotation
							JOINT RightWrist
							{
OFFSET 0 -3.226030 0.000000
CHANNELS 3 Zrotation Xrotation Yrotation
								JOINT rhand
								{
									OFFSET 0 0 0
CHANNELS 3 Zrotation Xrotation Yrotation
									JOINT RFingers
									{
OFFSET 0 -0.716290 0.000000
CHANNELS 3 Zrotation Xrotation Yrotation
										End Site
										{
OFFSET 0 -0.577490 0.000000
										}
									}
								}
								JOINT RThumb
								{
OFFSET 0 0.000000 0.000000
CHANNELS 3 Zrotation Xrotation Yrotation
									End Site
									{
OFFSET 0 -0.586310 0.586310
									}
								}
							}
						}
					}
				}
			}
		}
	}
}
MOTION
Frames: 4
Frame Time: 0.008333333333333333
1.572100 18.489700 -0.093600 29.048900 89.787000 40.368800 0.000000 0.000000 0.000000 -18.159700 4.663500 -15.854800 0.914200 6.092400 17.052700 0.486900 -9.022700 -13.056400 1.835100 -8.513800 -24.286000 0.000000 0.000000 0.000000 17.043300 -6.754500 -9.161300 -0.017300 -0.849800 2.335500 -0.199600 0.128700 -8.393100 -0.674700 5.252400 -14.629800 -0.766400 -2.420800 -11.450500 0.656900 -3.043800 -3.015100 0.685900 -1.469900 3.337600 -7.749000 -12.617400 -10.797400 6.869100 -18.307300 34.777800 1.144800 -7.589200 15.446700 0.000000 0.000000 0.000000 5.979100 4.930200 -43.503800 18.769600 -29.131400 4.918200 9.168000 -7.216300 -26.088300 0.000000 0.000000 0.000000 -7.125000 0.000000 0.000000 -21.987200 54.977000 5.587100 0.000000 0.000000 0.000000 -1.021200 -0.142500 15.070900 -22.473000 -33.507400 -6.845100 -26.199100 -148.622100 8.512800 0.000000 0.000000 0.000000 7.125000 0.000000 -0.000000 0.598000 39.449800 0.081800
1.574071 18.489830 -0.095148 57.733486 89.901797 69.136616 0.000000 0.000000 0.000000 -18.119090 4.581110 -15.957277 0.920127 6.111422 17.107972 0.494427 -9.265239 -13.203969 1.561865 -7.882812 -22.360654 0.000000 0.000000 0.000000 17.101677 -6.896421 -9.136369 -0.013903 -0.760602 2.090417 -0.193739 0.084635 -8.283395 -0.684005 5.287733 -14.731108 -0.740270 -2.470146 -11.477050 0.685661 -3.110653 -3.067429 0.691794 -1.501704 3.299191 -7.787672 -12.610467 -10.771258 6.885690 -18.295373 34.801484 1.161469 -7.586004 15.458570 0.000000 0.000000 0.000000 5.975294 4.901330 -43.467170 18.788528 -29.154985 4.927391 8.951509 -7.144886 -26.220680 0.000000 0.000000 0.000000 -7.125000 0.000000 0.000000 -22.281958 55.057829 5.712384 0.000000 0.000000 0.000000 -1.027136 -0.137491 15.199303 -22.470920 -33.505196 -6.844036 -26.171638 -148.678628 8.466230 0.000000 0.000000 0.000000 7.125000 0.000000 0.000000 0.618502 39.395938 0.085446
1.579264 18.489413 -0.099330 104.667194 89.968963 116.080295 0.000000 0.000000 0.000000 -18.070901 4.588131 -15.974899 0.922556 6.119447 17.131415 0.492041 -9.356095 -13.202281 1.492102 -7.711565 -21.843881 0.000000 0.000000 0.000000 17.155289 -7.004181 -9.024323 -0.011057 -0.677941 1.863057 -0.189002 0.008080 -8.208624 -0.687814 5.302263 -14.772763 -0.676937 -2.498190 -11.467409 0.720448 -3.155716 -3.089715 0.686928 -1.523344 3.270169 -7.809468 -12.613776 -10.758617 6.842178 -18.281482 34.821417 1.150462 -7.588356 15.460436 0.000000 0.000000 0.000000 5.937914 4.881317 -43.401540 18.789563 -29.156302 4.927878 8.890734 -7.124315 -26.155577 0.000000 0.000000 0.000000 -7.125000 0.000000 0.000000 -22.301054 54.986161 5.678093 0.000000 0.000000 0.000000 -1.056153 -0.124178 15.304247 -22.487623 -33.523786 -6.853223 -26.269637 -148.798304 8.377359 0.000000 0.000000 0.000000 7.125000 0.000000 0.000000 0.526723 39.305272 0.073894
1.587979 18.487938 -0.104035 181.858466 89.998170 193.279972 0.000000 0.000000 0.000000 -18.062548 4.611840 -15.986643 0.926764 6.132954 17.170721 0.487539 -9.251753 -13.125329 1.794480 -8.418214 -23.995348 0.000000 0.000000 0.000000 17.150414 -7.094263 -8.754163 -0.006355 -0.509389 1.399795 -0.178618 -0.162864 -8.043181 -0.699899 5.347552 -14.902506 -0.641246 -2.505523 -11.520882 0.743053 -3.169457 -3.093096 0.686265 -1.529678 3.295550 -7.866873 -12.608227 -10.732650 6.838185 -18.258595 34.827378 1.163407 -7.587306 15.461809 0.000000 0.000000 0.000000 5.871129 4.867253 -43.309875 18.818663 -29.192686 4.942096 8.864106 -7.034085 -26.153436 0.000000 0.000000 0.000000 -7.125000 0.000000 0.000000 -22.325798 54.979180 5.680896 0.000000 0.000000 0.000000 -1.116125 -0.078421 15.547591 -22.556642 -33.600370 -6.891365 -26.233172 -149.115297 8.254473 0.000000 0.000000 0.000000 7.125000 0.000000 0.000000 0.549636 39.166083 0.079085
